<?xml version="1.0" encoding="UTF-8"?><svg id="b" xmlns="http://www.w3.org/2000/svg" width="60" height="60" viewBox="0 0 60 60"><defs><style>.c,.d{fill:#006c90;}.c,.e{stroke:#fff;stroke-linecap:round;stroke-linejoin:round;}.e{fill:none;}</style></defs><circle class="d" cx="30" cy="30" r="29"/><path class="e" d="M11.823,19.475v18.911c0,.788.67,1.406,1.456,1.346,3.787-.286,13.854-.659,16.722,3.132v-19.659s-5.957-5.477-16.852-5.082c-.735.027-1.325.616-1.325,1.352Z"/><path class="e" d="M48.177,19.616v18.855c0,.878-.748,1.568-1.622,1.489-3.908-.353-13.728-.832-16.555,2.905v-20.992s5.905-4.097,16.709-3.754c.813.026,1.468.684,1.468,1.498Z"/><polyline class="c" points="20.063 37.388 20.063 47.664 22.496 45.784 24.673 47.664 24.673 38.858"/><path class="c" d="M14.993,16.992v18.305c0,.668.488,1.239,1.149,1.335,3.085.45,11.478,2.038,13.859,6.233v-21.627s-4.836-5.926-13.689-5.601c-.731.027-1.318.623-1.318,1.355Z"/><path class="c" d="M33.698,25.65c1.835-.988,5.506-1.882,9.412-2.024"/><path class="c" d="M33.698,29.45c1.835-.988,5.506-1.882,9.412-2.024"/><path class="c" d="M33.698,35.797c1.835-.988,3.505-1.29,5.39-1.394"/></svg>