<?xml version="1.0" encoding="UTF-8"?><svg id="b" xmlns="http://www.w3.org/2000/svg" width="60" height="60" viewBox="0 0 60 60"><defs><style>.c,.d{fill:#006c90;}.c,.e{stroke:#fff;stroke-linecap:round;stroke-linejoin:round;}.e{fill:none;}</style></defs><circle class="d" cx="30" cy="30" r="29"/><path class="e" d="M10.897,20.645v19.875c0,.828.704,1.477,1.53,1.415,3.98-.301,14.56-.693,17.573,3.292v-20.661s-6.26-5.756-17.711-5.341c-.772.028-1.393.648-1.393,1.421Z"/><path class="e" d="M49.103,20.793v19.815c0,.923-.786,1.647-1.705,1.564-4.107-.371-14.428-.874-17.398,3.053v-20.661s6.206-5.706,17.56-5.346c.855.027,1.543.719,1.543,1.574Z"/><path class="c" d="M14.228,18.035v19.237c0,.702.512,1.302,1.207,1.403,3.242.473,12.062,2.142,14.565,6.55v-22.729s-5.083-6.227-14.387-5.886c-.769.028-1.385.655-1.385,1.424Z"/><path class="c" d="M45.772,18.183v18.96c0,.777-.563,1.437-1.332,1.552-3.338.497-11.969,2.178-14.44,6.532v-22.729s5.029-6.161,14.239-5.891c.851.025,1.533.725,1.533,1.577Z"/></svg>